<?xml version="1.0" encoding="utf-8"?>
<!-- Generator: Adobe Illustrator 23.0.6, SVG Export Plug-In . SVG Version: 6.00 Build 0)  -->
<svg version="1.1" id="Layer_1" xmlns="http://www.w3.org/2000/svg" xmlns:xlink="http://www.w3.org/1999/xlink" x="0px" y="0px"
	 viewBox="0 0 296.8 189.6" style="enable-background:new 0 0 296.8 189.6;" xml:space="preserve">
<style type="text/css">
@keyframes desktop-float {
  0%   {transform: translateY(10px)}
  50%  {transform: translateY(0px)}
  100% {transform: translateY(10px)}
}

	.desktop {
		animation: desktop-float 5s ease infinite;
	}
	.st0{fill:#78FFD6;}
	.st1{fill:#FFFFFF;stroke:#EEEEEE;stroke-width:3.104;stroke-linecap:round;stroke-linejoin:round;stroke-miterlimit:10;}
	.st2{fill:#EEEEEE;}
	.st3{fill:#FF5252;}
	.st4{fill:#FFFF00;}
	.st5{fill:#69F0AE;}
	.st6{fill:#BFBEBE;}
	.st7{fill:#7C00FF;}
	.st8{fill:#FFFFFF;}
	.st9{fill:none;stroke:#FFFFFF;stroke-width:0.8398;stroke-linecap:round;stroke-linejoin:round;stroke-miterlimit:10;}
</style>
<path class="st0" d="M281.4,88.8c12,23.2,18,47.4,9,65c-8.9,17.6-32.9,28.7-63.3,32.4c-30.5,3.7-67.3,0.1-75.7-17.3
	c-8.4-17.3,11.7-48.3,30.3-75.2c18.4-26.9,35.1-49.7,52.5-50.1C251.4,43.4,269.3,65.6,281.4,88.8z"/>
<g class="desktop">
	<path class="st1" d="M7.1,3.1h206.1c2.3,0,4.1,1.8,4.1,4.1v139.1c0,2.3-1.8,4.1-4.1,4.1H7.1c-2.3,0-4.1-1.8-4.1-4.1V7.2
		C3,5,4.8,3.1,7.1,3.1z"/>
	<path class="st2" d="M7.1,3.1h206.1c2.3,0,4.1,1.8,4.1,4.1v5.9H3V7.2C3,5,4.8,3.1,7.1,3.1z"/>
	<circle class="st3" cx="7.6" cy="8.1" r="1.7"/>
	<circle class="st4" cx="14.6" cy="8.1" r="1.7"/>
	<circle class="st5" cx="21.6" cy="8.1" r="1.7"/>
	<g>
		<rect x="7.6" y="16.1" class="st6" width="11" height="11"/>
		<rect x="20.9" y="17.5" class="st6" width="31.4" height="8.2"/>
	</g>
	<path class="st7" d="M59,13.1c-2.3,0-4.1,1.8-4.1,4.1v32.6c0,2.3-1.9,4.2-4.2,4.2H7c-1.3,0-2.4,1.1-2.4,2.4v14
		C4.6,71.9,5.7,73,7,73h43.7c2.3,0,4.2,1.9,4.2,4.2v67.5c0,2.3,1.8,4.1,4.1,4.1h154.2c1.4,0,2.5-1.1,2.5-2.5V13.1H59z"/>
	<g>
		<rect x="20.9" y="38" class="st6" width="19" height="4.4"/>
		<rect x="20.9" y="44.6" class="st6" width="26.7" height="4.4"/>
		<rect x="20.9" y="58.1" class="st8" width="19" height="4.4"/>
		<rect x="20.9" y="64.7" class="st8" width="26.7" height="4.4"/>
		<rect x="20.9" y="78.2" class="st6" width="19" height="4.4"/>
		<rect x="20.9" y="84.8" class="st6" width="26.7" height="4.4"/>
		<rect x="20.9" y="98.2" class="st6" width="19" height="4.4"/>
		<rect x="20.9" y="104.9" class="st6" width="26.7" height="4.4"/>
		<rect x="20.9" y="118.3" class="st6" width="19" height="4.4"/>
		<rect x="20.9" y="124.9" class="st6" width="26.7" height="4.4"/>
		<rect x="20.9" y="138.4" class="st6" width="19" height="4.4"/>
		<rect x="20.9" y="144.7" class="st6" width="26.7" height="4.2"/>
	</g>
	<g>
		<rect x="7.6" y="38" class="st6" width="11" height="11"/>
		<rect x="7.6" y="58.1" class="st8" width="11" height="11"/>
		<rect x="7.6" y="78.2" class="st6" width="11" height="11"/>
		<rect x="7.6" y="98.2" class="st6" width="11" height="11"/>
		<rect x="7.6" y="118.3" class="st6" width="11" height="11"/>
		<path class="st6" d="M18.5,148.9v-10.4h-11v10.4c0.2,0,0.4,0.1,0.5,0.1H18.5z"/>
	</g>
	<rect x="59" y="17.5" class="st8" width="32.9" height="32.9"/>
	<rect x="159.4" y="17.5" class="st8" width="52.3" height="52.3"/>
	<rect x="59" y="55.6" class="st8" width="32.9" height="5.7"/>
	<rect x="59" y="64.1" class="st8" width="40.1" height="5.7"/>
	<rect x="94.9" y="17.5" class="st8" width="5.8" height="5.8"/>
	<line class="st9" x1="59" y1="143.2" x2="211.6" y2="143.2"/>
	<circle class="st8" cx="86.7" cy="143.2" r="1.7"/>
	<rect x="59" y="131.7" class="st8" width="6.7" height="6.7"/>
	<rect x="83.3" y="131.7" class="st8" width="6.7" height="6.7"/>
	<rect x="107.7" y="131.7" class="st8" width="6.7" height="6.7"/>
	<rect x="132" y="131.7" class="st8" width="6.7" height="6.7"/>
	<rect x="156.3" y="131.7" class="st8" width="6.7" height="6.7"/>
	<rect x="180.6" y="131.7" class="st8" width="6.7" height="6.7"/>
	<rect x="204.9" y="131.7" class="st8" width="6.7" height="6.7"/>
	<rect x="59" y="80.3" class="st8" width="8.7" height="8.7"/>
	<rect x="59" y="95.4" class="st8" width="8.7" height="8.7"/>
	<rect x="59" y="110.5" class="st8" width="8.7" height="8.7"/>
	<rect x="71.1" y="112.9" class="st8" width="24.3" height="3.9"/>
	<rect x="71.1" y="97.8" class="st8" width="24.3" height="3.9"/>
	<rect x="71.1" y="82.8" class="st8" width="24.3" height="3.9"/>
</g>
</svg>
