<?xml version="1.0" encoding="utf-8"?>
<!-- Generator: Adobe Illustrator 23.0.6, SVG Export Plug-In . SVG Version: 6.00 Build 0)  -->
<svg version="1.1" id="Layer_1" xmlns="http://www.w3.org/2000/svg" xmlns:xlink="http://www.w3.org/1999/xlink" x="0px" y="0px"
	 viewBox="0 0 162.51 200" style="enable-background:new 0 0 162.51 200;" xml:space="preserve">
<style type="text/css">
@keyframes phone-float {
  0%   {transform: translateY(10px)}
  50%  {transform: translateY(0px)}
  100% {transform: translateY(10px)}
}

	.phone {
		animation: phone-float 5s ease infinite;
	}
	.st0{fill:#FF0066;}
	.st1{fill:#3D3235;}
	.st2{fill:#FFFFFF;}
	.st3{fill:#FFFFFF;stroke:#3D3235;stroke-width:2.5193;stroke-linecap:round;stroke-linejoin:round;stroke-miterlimit:10;}
	.st4{fill:#7C00FF;}
	.st5{fill:#BFBEBE;}
	.st6{fill:none;stroke:#FFFFFF;stroke-width:0.8398;stroke-linecap:round;stroke-linejoin:round;stroke-miterlimit:10;}
</style>
<path class="st0" d="M147.17,99.24c11.97,23.17,18.02,47.36,9.01,65c-8.88,17.63-32.95,28.7-63.32,32.43
	c-30.5,3.73-67.31,0.13-75.68-17.25c-8.37-17.25,11.71-48.27,30.25-75.17c18.41-26.9,35.14-49.68,52.51-50.07
	C117.18,53.8,135.07,76.07,147.17,99.24z"/>
<g class="phone">
	<rect x="18.18" y="2.03" class="st1" width="49.34" height="8.75" style="z-index: -1;"/>
	<path class="st2" d="M8.28,159.59c-2.17,0-3.93-1.76-3.93-3.93V7.23c0-2.17,1.77-3.93,3.93-3.93h12.55c1.48,0,2.73,1.06,2.96,2.53
		l0.25,1.59c0.06,1.96,1.67,3.54,3.65,3.54h30.68c1.98,0,3.59-1.58,3.65-3.54l0.25-1.59c0.23-1.46,1.48-2.53,2.96-2.53H77.8
		c2.17,0,3.93,1.77,3.93,3.93v148.43c0,2.17-1.76,3.93-3.93,3.93H8.28z"/>

	<path class="st1" d="M77.8,4.55c1.47,0,2.67,1.2,2.67,2.67v148.43c0,1.47-1.2,2.67-2.67,2.67H8.28c-1.47,0-2.67-1.2-2.67-2.67
		V7.23c0-1.47,1.2-2.67,2.67-2.67h12.55c0.86,0,1.58,0.62,1.72,1.47l0.24,1.51c0.12,2.6,2.28,4.68,4.91,4.68h30.68
		c2.63,0,4.78-2.08,4.91-4.68l0.24-1.51c0.14-0.85,0.86-1.47,1.72-1.47H77.8 M77.8,2.03H65.25c-2.09,0-3.88,1.52-4.21,3.59
		L60.77,7.3c0,1.32-1.07,2.39-2.39,2.39H27.7c-1.32,0-2.39-1.07-2.39-2.39l-0.27-1.68c-0.33-2.07-2.11-3.59-4.21-3.59H8.28
		c-2.87,0-5.19,2.33-5.19,5.19v148.43c0,2.87,2.33,5.19,5.19,5.19H77.8c2.87,0,5.19-2.33,5.19-5.19V7.23
		C83,4.36,80.67,2.03,77.8,2.03L77.8,2.03z"/>
	<line class="st3" x1="3.09" y1="30.12" x2="3.09" y2="49.26"/>
	<line class="st3" x1="3.09" y1="61.06" x2="3.09" y2="66.19"/>
	<path class="st4" d="M19.73,141.68H8.13c-1.39,0-2.52-1.13-2.52-2.52V28.44c0-1.39,1.13-2.52,2.52-2.52h69.83
		c1.39,0,2.52,1.13,2.52,2.52v110.73c0,1.39-1.13,2.52-2.52,2.52H41.42c-1.39,0-2.52,1.13-2.52,2.52v11.61
		c0,1.39-1.13,2.52-2.52,2.52H24.77c-1.39,0-2.52-1.13-2.52-2.52l0-11.61C22.25,142.81,21.13,141.68,19.73,141.68z"/>
	<g>
		<rect x="8.99" y="146.68" class="st5" width="9.73" height="5.84"/>
		<rect x="8.99" y="144.3" class="st5" width="9.73" height="1.46"/>
		<rect x="11.55" y="153.43" class="st5" width="4.6" height="2.29"/>
	</g>
	<g>
		<rect x="25.71" y="146.68" class="st2" width="9.73" height="5.84"/>
		<rect x="25.71" y="144.3" class="st2" width="9.73" height="1.46"/>
		<rect x="28.28" y="153.43" class="st2" width="4.6" height="2.29"/>
	</g>
	<g>
		<rect x="42.43" y="146.68" class="st5" width="9.73" height="5.84"/>
		<rect x="42.43" y="144.3" class="st5" width="9.73" height="1.46"/>
		<rect x="45" y="153.43" class="st5" width="4.6" height="2.29"/>
	</g>
	<g>
		<rect x="59.15" y="146.68" class="st5" width="9.73" height="5.84"/>
		<rect x="59.15" y="144.3" class="st5" width="9.73" height="1.46"/>
		<rect x="61.72" y="153.43" class="st5" width="4.6" height="2.29"/>
	</g>
	<g>
		<rect x="75.88" y="146.68" class="st5" width="4.6" height="5.84"/>
		<rect x="75.88" y="144.3" class="st5" width="4.6" height="1.46"/>
		<rect x="78.44" y="153.43" class="st5" width="2.04" height="2.29"/>
	</g>
	<line class="st6" x1="9.45" y1="135.27" x2="76.63" y2="135.27"/>
	<circle class="st2" cx="24.46" cy="135.27" r="1.71"/>
	<rect x="43.04" y="29.76" class="st2" width="33.59" height="33.59"/>
	<rect x="9.45" y="29.76" class="st2" width="19.5" height="19.5"/>
	<rect x="9.45" y="74.26" class="st2" width="10.48" height="10.48"/>
	<rect x="9.45" y="89.55" class="st2" width="10.48" height="10.48"/>
	<rect x="9.45" y="104.84" class="st2" width="10.48" height="10.48"/>
	<rect x="9.45" y="59.69" class="st2" width="19.5" height="3.67"/>
	<rect x="22.77" y="77.67" class="st2" width="19.5" height="3.67"/>
	<rect x="22.77" y="92.96" class="st2" width="19.5" height="3.67"/>
	<rect x="22.77" y="108.25" class="st2" width="19.5" height="3.67"/>
	<rect x="9.45" y="53.93" class="st2" width="15.01" height="3.67"/>
	<rect x="30.82" y="29.76" class="st2" width="3.74" height="3.74"/>
	<rect x="9.45" y="13.58" class="st5" width="10.98" height="10.98"/>
	<rect x="65.66" y="13.58" class="st5" width="10.98" height="10.98"/>
	<rect x="24.46" y="14.94" class="st5" width="27.33" height="8.25"/>
	<rect x="9.45" y="125.31" class="st2" width="5.24" height="5.24"/>
	<rect x="21.84" y="125.31" class="st2" width="5.24" height="5.24"/>
	<rect x="34.23" y="125.31" class="st2" width="5.24" height="5.24"/>
	<rect x="46.62" y="125.31" class="st2" width="5.24" height="5.24"/>
	<rect x="59.01" y="125.31" class="st2" width="5.24" height="5.24"/>
	<rect x="71.39" y="125.31" class="st2" width="5.24" height="5.24"/>
</g>
</svg>
